:FULLY-SPECIFIED
:FORCE-ALL-JOINTS-BE-3DOF
:DEGREES
577
root 7.06056 16.1345 -3.49456 -165.906 77.1527 -172.162
lfemur -18.3479 3.83496 -18.1919
ltibia 48.6553 0 0
lfoot -34.2517 5.5099 0
ltoes -2.41642 0 0
rfemur -46.5649 -8.87502 10.5353
rtibia 42.112 0 0
rfoot 14.0754 9.219 0
rtoes -30.2212 0 0
lowerback 6.46986 -0.86112 -3.00375
upperback 2.54435 -1.18119 3.36869
thorax -0.864317 -0.591539 5.27259
lowerneck -4.59373 -13.799 -4.2649
upperneck 10.4481 -18.7535 5.7056
head 4.8234 -9.05363 1.23921
lclavicle 1.43606e-14 -2.20064e-14 0
lhumerus -37.748 -16.6427 92.7976
lradius 53.8452 0 0
lwrist 22.1554 0 0
lhand -21.7139 -4.84299 0
lfingers 7.12502 0 0
lthumb 4.68552 25.0966 0
rclavicle 1.43606e-14 -2.20064e-14 0
rhumerus 26.8225 17.5801 -73.5452
rradius 134.748 0 0
rwrist -43.2083 0 0
rhand -26.1102 -20.39 0
rfingers 7.12502 0 0
rthumb 0.439335 -770.37 0
578
root 7.00319 16.1559 -3.48755 -164.979 78.4095 -171.139
lfemur -18.161 3.81376 -18.2292
ltibia 48.2117 0 0
lfoot -33.9937 6.07512 0
ltoes -2.16007 0 0
rfemur -46.5356 -9.2073 10.8457
rtibia 43.6181 0 0
rfoot 13.9329 8.89008 0
rtoes -29.2355 0 0
lowerback 6.31591 -0.859284 -3.18525
upperback 2.51463 -1.19194 3.28473
thorax -0.805181 -0.600355 5.28543
lowerneck -4.65413 -13.7806 -4.25674
upperneck 10.5904 -18.7444 5.76498
head 4.88141 -9.03976 1.24557
lclavicle 1.26991e-14 -1.94003e-14 0
lhumerus -36.6663 -17.3677 91.9619
lradius 53.7317 0 0
lwrist 22.4148 0 0
lhand -21.6241 -4.61955 0
lfingers 7.12502 0 0
lthumb 4.77236 25.3195 0
rclavicle 1.26991e-14 -1.94003e-14 0
rhumerus 26.777 17.6337 -73.4572
rradius 134.848 0 0
rwrist -43.1262 0 0
rhand -26.0433 -20.2291 0
rfingers 7.12502 0 0
rthumb 0.503922 -770.209 0
579
root 6.94582 16.1774 -3.48053 -163.916 79.6163 -169.976
lfemur -17.9904 3.79998 -18.2664
ltibia 47.8045 0 0
lfoot -33.7391 6.63901 0
ltoes -1.88602 0 0
rfemur -46.5149 -9.54821 11.158
rtibia 45.175 0 0
rfoot 13.7562 8.56829 0
rtoes -28.2317 0 0
lowerback 6.16618 -0.857933 -3.36405
upperback 2.48769 -1.20221 3.20224
thorax -0.745433 -0.608589 5.29807
lowerneck -4.71494 -13.7604 -4.24702
upperneck 10.7348 -18.7335 5.82721
head 4.94039 -9.02473 1.25258
lclavicle 1.11999e-14 -1.67216e-14 0
lhumerus -35.5753 -18.112 91.1337
lradius 53.6214 0 0
lwrist 22.6848 0 0
lhand -21.5272 -4.38798 0
lfingers 7.12502 0 0
lthumb 4.86595 25.5501 0
rclavicle 1.11999e-14 -1.67216e-14 0
rhumerus 26.7041 17.6778 -73.3857
rradius 134.935 0 0
rwrist -43.0595 0 0
rhand -25.9804 -20.0719 0
rfingers 7.12502 0 0
rthumb 0.564649 -770.052 0
580
root 6.88845 16.1988 -3.47352 -162.691 80.757 -168.65
lfemur -17.8349 3.80098 -18.3047
ltibia 47.4287 0 0
lfoot -33.4899 7.20223 0
ltoes -1.59337 0 0
rfemur -46.504 -9.89496 11.475
rtibia 46.7588 0 0
rfoot 13.5525 8.26545 0
rtoes -27.2167 0 0
lowerback 6.02073 -0.858 -3.53905
upperback 2.46234 -1.21337 3.12111
thorax -0.686259 -0.616943 5.30988
lowerneck -4.77679 -13.7372 -4.23465
upperneck 10.8807 -18.7191 5.89039
head 4.99991 -9.00778 1.25968
lclavicle 9.88485e-15 -1.40091e-14 0
lhumerus -34.4855 -18.8716 90.3229
lradius 53.5161 0 0
lwrist 22.9587 0 0
lhand -21.4214 -4.15101 0
lfingers 7.12502 0 0
lthumb 4.96809 25.7855 0
rclavicle 9.88485e-15 -1.40091e-14 0
rhumerus 26.609 17.708 -73.3278
rradius 135.003 0 0
rwrist -43.0124 0 0
rhand -25.9219 -19.9205 0
rfingers 7.12502 0 0
rthumb 0.621151 -769.9 0
581
root 6.83109 16.2202 -3.46651 -161.277 81.8154 -167.137
lfemur -17.6934 3.82413 -18.3452
ltibia 47.0787 0 0
lfoot -33.2483 7.76548 0
ltoes -1.28119 0 0
rfemur -46.5041 -10.2448 11.7993
rtibia 48.3453 0 0
rfoot 13.3287 7.99339 0
rtoes -26.1968 0 0
lowerback 5.87958 -0.860418 -3.70917
upperback 2.43738 -1.2268 3.04121
thorax -0.628846 -0.626115 5.32025
lowerneck -4.84028 -13.7099 -4.21856
upperneck 11.0275 -18.6995 5.95261
head 5.05955 -8.9882 1.26632
lclavicle 8.77584e-15 -1.13016e-14 0
lhumerus -33.4077 -19.6426 89.5392
lradius 53.4177 0 0
lwrist 23.2299 0 0
lhand -21.305 -3.91139 0
lfingers 7.12502 0 0
lthumb 5.08057 26.023 0
rclavicle 8.77584e-15 -1.13016e-14 0
rhumerus 26.4965 17.7198 -73.2806
rradius 135.048 0 0
rwrist -42.9892 0 0
rhand -25.8682 -19.7772 0
rfingers 7.12502 0 0
rthumb 0.673059 -769.757 0
582
root 6.77372 16.2416 -3.4595 -159.647 82.7754 -165.412
lfemur -17.5648 3.87679 -18.3888
ltibia 46.7493 0 0
lfoot -33.0163 8.32944 0
ltoes -0.948566 0 0
rfemur -46.5164 -10.5949 12.1335
rtibia 49.9106 0 0
rfoot 13.092 7.76392 0
rtoes -25.1788 0 0
lowerback 5.74277 -0.866117 -3.87333
upperback 2.4116 -1.24388 2.96241
thorax -0.574379 -0.636807 5.32854
lowerneck -4.90602 -13.6774 -4.1977
upperneck 11.1747 -18.6731 6.01197
head 5.1189 -8.96526 1.27196
lclavicle 7.89481e-15 -8.63792e-15 0
lhumerus -32.3524 -20.421 88.7926
lradius 53.3281 0 0
lwrist 23.4919 0 0
lhand -21.1759 -3.67185 0
lfingers 7.12502 0 0
lthumb 5.20521 26.2595 0
rclavicle 7.89481e-15 -8.63792e-15 0
rhumerus 26.3717 17.7089 -73.2411
rradius 135.065 0 0
rwrist -42.9943 0 0
rhand -25.8196 -19.6441 0
rfingers 7.12502 0 0
rthumb 0.720007 -769.623 0
583
root 6.71635 16.2631 -3.45249 -157.774 83.6208 -163.453
lfemur -17.4478 3.96635 -18.4368
ltibia 46.4352 0 0
lfoot -32.7962 8.89478 0
ltoes -0.594575 0 0
rfemur -46.5423 -10.9425 12.4803
rtibia 51.4306 0 0
rfoot 12.8494 7.58886 0
rtoes -24.1692 0 0
lowerback 5.61034 -0.876032 -4.03042
upperback 2.38382 -1.26597 2.8846
thorax -0.524046 -0.64972 5.33413
lowerneck -4.97462 -13.6385 -4.17098
upperneck 11.3217 -18.6383 6.06658
head 5.17754 -8.93823 1.27603
lclavicle 7.26366e-15 -6.05698e-15 0
lhumerus -31.3302 -21.2029 88.0927
lradius 53.2491 0 0
lwrist 23.738 0 0
lhand -21.0324 -3.43513 0
lfingers 7.12502 0 0
lthumb 5.34378 26.4923 0
rclavicle 7.26366e-15 -6.05698e-15 0
rhumerus 26.2397 17.6709 -73.2063
rradius 135.049 0 0
rwrist -43.0319 0 0
rhand -25.7765 -19.5234 0
rfingers 7.12502 0 0
rthumb 0.761628 -769.502 0
584
root 6.65899 16.2845 -3.44548 -155.632 84.3356 -161.236
lfemur -17.3415 4.10016 -18.4901
ltibia 46.131 0 0
lfoot -32.5899 9.4622 0
ltoes -0.218299 0 0
rfemur -46.5829 -11.2848 12.8425
rtibia 52.8813 0 0
rfoot 12.6079 7.48004 0
rtoes -23.1746 0 0
lowerback 5.48233 -0.891094 -4.17938
upperback 2.35283 -1.29446 2.80764
thorax -0.479032 -0.665553 5.3364
lowerneck -5.0467 -13.5921 -4.13734
upperneck 11.4679 -18.5934 6.11452
head 5.23503 -8.90637 1.278
lclavicle 6.90432e-15 -3.59761e-15 0
lhumerus -30.3518 -21.9845 87.4493
lradius 53.1826 0 0
lwrist 23.9618 0 0
lhand -20.8725 -3.20395 0
lfingers 7.12502 0 0
lthumb 5.4981 26.7186 0
rclavicle 6.90432e-15 -3.59761e-15 0
rhumerus 26.1054 17.6013 -73.1734
rradius 134.994 0 0
rwrist -43.1062 0 0
rhand -25.7393 -19.4172 0
rfingers 7.12502 0 0
rthumb 0.797556 -769.396 0
585
root 6.60162 16.3059 -3.43847 -153.195 84.9037 -158.735
lfemur -17.2446 4.2856 -18.5498
ltibia 45.8315 0 0
lfoot -32.3997 10.0324 0
ltoes 0.181181 0 0
rfemur -46.6395 -11.619 13.2225
rtibia 54.2388 0 0
rfoot 12.3747 7.44928 0
rtoes -22.2016 0 0
lowerback 5.35877 -0.912236 -4.3191
upperback 2.31744 -1.33073 2.73142
thorax -0.440524 -0.685009 5.33472
lowerneck -5.12287 -13.537 -4.09571
upperneck 11.6128 -18.5368 6.1539
head 5.29097 -8.86897 1.2773
lclavicle 6.83869e-15 -1.29864e-15 0
lhumerus -29.4276 -22.7617 86.8724
lradius 53.1306 0 0
lwrist 24.1565 0 0
lhand -20.6944 -2.98105 0
lfingers 7.12502 0 0
lthumb 5.66996 26.9354 0
rclavicle 6.83869e-15 -1.29864e-15 0
rhumerus 25.9738 17.4958 -73.1393
rradius 134.897 0 0
rwrist -43.2217 0 0
rhand -25.7084 -19.3279 0
rfingers 7.12502 0 0
rthumb 0.827423 -769.307 0
586
root 6.54425 16.3273 -3.43146 -150.434 85.3088 -155.928
lfemur -17.1561 4.53003 -18.6171
ltibia 45.5312 0 0
lfoot -32.2276 10.606 0
ltoes 0.604783 0 0
rfemur -46.7133 -11.9424 13.6232
rtibia 55.479 0 0
rfoot 12.1568 7.5084 0
rtoes -21.2568 0 0
lowerback 5.2397 -0.94039 -4.4485
upperback 2.27645 -1.37613 2.65582
thorax -0.409708 -0.708787 5.32848
lowerneck -5.20373 -13.4722 -4.04502
upperneck 11.7558 -18.4668 6.18282
head 5.34493 -8.82529 1.27339
lclavicle 7.0887e-15 8.01079e-16 0
lhumerus -28.5684 -23.5306 86.3717
lradius 53.0947 0 0
lwrist 24.3157 0 0
lhand -20.4963 -2.76918 0
lfingers 7.12502 0 0
lthumb 5.86115 27.1399 0
rclavicle 7.0887e-15 8.01079e-16 0
rhumerus 25.8499 17.35 -73.1012
rradius 134.753 0 0
rwrist -43.3824 0 0
rhand -25.6841 -19.2575 0
rfingers 7.12502 0 0
rthumb 0.850862 -769.236 0
587
root 6.48688 16.3488 -3.42445 -147.325 85.5349 -152.79
lfemur -17.0747 4.84083 -18.6929
ltibia 45.225 0 0
lfoot -32.0757 11.1837 0
ltoes 1.05343 0 0
rfemur -46.8056 -12.2522 14.0471
rtibia 56.5779 0 0
rfoot 11.9612 7.66921 0
rtoes -20.3468 0 0
lowerback 5.12516 -0.976489 -4.56649
upperback 2.22867 -1.43206 2.5807
thorax -0.38777 -0.737587 5.31704
lowerneck -5.2899 -13.3964 -3.98421
upperneck 11.8963 -18.3818 6.19937
head 5.39648 -8.77459 1.26572
lclavicle 7.67626e-15 2.6627e-15 0
lhumerus -27.7848 -24.2874 85.9569
lradius 53.077 0 0
lwrist 24.4327 0 0
lhand -20.2762 -2.57105 0
lfingers 7.12502 0 0
lthumb 6.07349 27.3292 0
rclavicle 7.67626e-15 2.6627e-15 0
rhumerus 25.7389 17.1594 -73.0561
rradius 134.555 0 0
rwrist -43.5929 0 0
rhand -25.6668 -19.2082 0
rfingers 7.12502 0 0
rthumb 0.867507 -769.187 0
588
root 6.42952 16.3702 -3.41744 -143.839 85.5658 -149.298
lfemur -16.9993 5.22537 -18.7784
ltibia 44.9073 0 0
lfoot -31.9462 11.7662 0
ltoes 1.52803 0 0
rfemur -46.9176 -12.5455 14.497
rtibia 57.5114 0 0
rfoot 11.795 7.94355 0
rtoes -19.4782 0 0
lowerback 5.01518 -1.02146 -4.67199
upperback 2.17288 -1.49989 2.50594
thorax -0.375898 -0.772112 5.29978
lowerneck -5.38199 -13.3085 -3.91219
upperneck 12.0337 -18.2801 6.20166
head 5.44521 -8.71617 1.25373
lclavicle 8.62327e-15 4.24738e-15 0
lhumerus -27.0873 -25.0281 85.6379
lradius 53.0793 0 0
lwrist 24.5009 0 0
lhand -20.0324 -2.38942 0
lfingers 7.12502 0 0
lthumb 6.30875 27.5006 0
rclavicle 8.62327e-15 4.24738e-15 0
rhumerus 25.6456 16.9197 -73.001
rradius 134.3 0 0
rwrist -43.8572 0 0
rhand -25.657 -19.1822 0
rfingers 7.12502 0 0
rthumb 0.876991 -769.161 0
589
root 6.37215 16.3916 -3.41043 -139.95 85.3855 -145.428
lfemur -16.9289 5.69101 -18.8747
ltibia 44.573 0 0
lfoot -31.8411 12.3542 0
ltoes 2.02952 0 0
rfemur -47.0505 -12.8197 14.9755
rtibia 58.2557 0 0
rfoot 11.6653 8.34324 0
rtoes -18.6576 0 0
lowerback 4.90981 -1.07625 -4.76391
upperback 2.10791 -1.58099 2.43143
thorax -0.375276 -0.81306 5.27608
lowerneck -5.48062 -13.2074 -3.8279
upperneck 12.1676 -18.1602 6.18778
head 5.4907 -8.64927 1.23688
lclavicle 9.95166e-15 5.51627e-15 0
lhumerus -26.4865 -25.7487 85.4245
lradius 53.1035 0 0
lwrist 24.5138 0 0
lhand -19.7629 -2.22701 0
lfingers 7.12502 0 0
lthumb 6.56875 27.6511 0
rclavicle 9.95166e-15 5.51627e-15 0
rhumerus 25.5751 16.6265 -72.9331
rradius 133.982 0 0
rwrist -44.1798 0 0
rhand -25.655 -19.1817 0
rfingers 7.12502 0 0
rthumb 0.878946 -769.16 0
590
root 6.33634 16.4045 -3.42761 -135.474 84.9779 -140.987
lfemur -16.8785 6.26496 -18.9846
ltibia 44.2485 0 0
lfoot -31.7607 12.9742 0
ltoes 2.57164 0 0
rfemur -47.2212 -13.086 15.5058
rtibia 58.8559 0 0
rfoot 11.5491 8.91812 0
rtoes -17.8555 0 0
lowerback 4.815 -1.1427 -4.84431
upperback 2.03688 -1.67747 2.35508
thorax -0.385633 -0.861288 5.2451
lowerneck -5.58628 -13.0913 -3.72969
upperneck 12.3035 -18.0202 6.16028
head 5.53483 -8.57267 1.21559
lclavicle 1.19423e-14 6.57999e-15 0
lhumerus -25.9589 -26.4609 85.3043
lradius 53.1372 0 0
lwrist 24.4768 0 0
lhand -19.4569 -2.07382 0
lfingers 7.12502 0 0
lthumb 6.86394 27.7902 0
rclavicle 1.19423e-14 6.57999e-15 0
rhumerus 25.5373 16.262 -72.8717
rradius 133.609 0 0
rwrist -44.5961 0 0
rhand -25.6603 -19.2015 0
rfingers 7.12502 0 0
rthumb 0.873867 -769.18 0
